<svg xmlns="http://www.w3.org/2000/svg" width="90" height="90" viewBox="0 0 90 90" fill="none" stroke="#1FA0A6" stroke-width="2.6" stroke-linecap="round" stroke-linejoin="round">
    <g transform="scale(0.86)" stroke-width="3.02">
      <rect x="13" y="16" width="24" height="24" rx="6"/>
      <path d="M19.5 28 L24.5 33 L31.5 23"/>
      <path d="M46 28 H72"/>
      <rect x="13" y="46" width="24" height="24" rx="6"/>
      <path d="M19.5 58 L24.5 63 L31.5 53"/>
      <path d="M46 58 H66"/>
    </g>
    <path d="M67 50 H82 A5 5 0 0 1 87 55 V65 A5 5 0 0 1 82 70 H74 L66 79 L66 70 A5 5 0 0 1 62 65 V55 A5 5 0 0 1 67 50 Z"/>
</svg>