<?xml version="1.0"?>
<svg viewBox="0 0 90 90" width="90" height="90" fill="none" stroke="#1FA0A6" stroke-width="2.6" stroke-linecap="round" stroke-linejoin="round" xmlns="http://www.w3.org/2000/svg"><path d="M10 22 H38 Q45 22 45 28 V74 Q45 70 38 70 H10 Z"></path><path d="M80 22 H52 Q45 22 45 28 V74 Q45 70 52 70 H80 Z"></path><line x1="45" y1="28" x2="45" y2="74"></line><line x1="16" y1="34" x2="38" y2="34"></line><line x1="16" y1="42" x2="38" y2="42"></line><line x1="16" y1="50" x2="38" y2="50"></line><line x1="16" y1="58" x2="32" y2="58"></line><circle cx="62" cy="40" r="5"></circle><path d="M52 60 q0 -10 10 -10 q10 0 10 10"></path></svg>