<?xml version="1.0"?>
<svg viewBox="0 0 90 90" width="90" height="90" fill="none" stroke="#1FA0A6" stroke-width="2.6" stroke-linecap="round" stroke-linejoin="round" xmlns="http://www.w3.org/2000/svg"><g><rect x="10" y="22" width="50" height="48" rx="4"></rect><line x1="10" y1="34" x2="60" y2="34"></line><line x1="22" y1="14" x2="22" y2="24"></line><line x1="48" y1="14" x2="48" y2="24"></line><circle cx="20" cy="46" r="1.8" fill="#1FA0A6" stroke="none"></circle><circle cx="32" cy="46" r="1.8" fill="#1FA0A6" stroke="none"></circle><circle cx="44" cy="46" r="1.8" fill="#1FA0A6" stroke="none"></circle><circle cx="20" cy="58" r="1.8" fill="#1FA0A6" stroke="none"></circle><circle cx="32" cy="58" r="1.8" fill="#1FA0A6" stroke="none"></circle></g><path d="M62 52 L78 68 L72 78 L60 76 L46 62 Z" fill="#fff"></path><path d="M62 52 L78 68"></path><path d="M72 78 L60 76"></path><path d="M46 62 L62 52"></path><path d="M52 68 L66 54"></path><path d="M70 76 L66 72"></path></svg>